<svg width="480" height="384" viewBox="0 0 480 384" fill="none" xmlns="http://www.w3.org/2000/svg">
<path d="M464 304H456V24C455.981 17.6406 453.446 11.5472 448.95 7.05042C444.453 2.55365 438.359 0.0189927 432 0H48C41.6406 0.0189927 35.5472 2.55365 31.0504 7.05042C26.5537 11.5472 24.019 17.6406 24 24V304H16C11.7604 304.013 7.69812 305.702 4.70028 308.7C1.70244 311.698 0.0126618 315.76 0 320V344C0 354.609 4.21427 364.783 11.7157 372.284C19.2172 379.786 29.3913 384 40 384H440C450.609 384 460.783 379.786 468.284 372.284C475.786 364.783 480 354.609 480 344V320C479.987 315.76 478.298 311.698 475.3 308.7C472.302 305.702 468.24 304.013 464 304ZM40 24C40 21.8783 40.8429 19.8434 42.3431 18.3431C43.8434 16.8429 45.8783 16 48 16H432C434.122 16 436.157 16.8429 437.657 18.3431C439.157 19.8434 440 21.8783 440 24V304H424V40C424 37.8783 423.157 35.8434 421.657 34.3431C420.157 32.8429 418.122 32 416 32H64C61.8783 32 59.8434 32.8429 58.3431 34.3431C56.8429 35.8434 56 37.8783 56 40V304H40V24ZM72 304V48H408V304H72ZM272 320V336H208V320H272ZM464 344C463.981 350.359 461.446 356.453 456.95 360.95C452.453 365.446 446.359 367.981 440 368H40C33.6406 367.981 27.5472 365.446 23.0504 360.95C18.5537 356.453 16.019 350.359 16 344V320H192V336C192.013 340.24 193.702 344.302 196.7 347.3C199.698 350.298 203.76 351.987 208 352H272C276.24 351.987 280.302 350.298 283.3 347.3C286.298 344.302 287.987 340.24 288 336V320H464V344Z" fill="#3EEAEF"/>
<path d="M139.312 128L157.656 109.656L146.344 98.344L122.344 122.344C120.844 123.844 120.002 125.879 120.002 128C120.002 130.121 120.844 132.156 122.344 133.656L146.344 157.656L157.656 146.344L139.312 128Z" fill="#3EEAEF"/>
<path d="M221.656 157.656L245.656 133.656C247.156 132.156 247.998 130.121 247.998 128C247.998 125.879 247.156 123.844 245.656 122.344L221.656 98.344L210.344 109.656L228.688 128L210.344 146.344L221.656 157.656Z" fill="#3EEAEF"/>
<path d="M168.257 158.114L184.287 94.1255L199.799 98.0116L183.769 162.001L168.257 158.114Z" fill="#3EEAEF"/>
<path d="M264 144H344V160H264V144Z" fill="#3EEAEF"/>
<path d="M264 112H280V128H264V112Z" fill="#3EEAEF"/>
<path d="M296 112H344V128H296V112Z" fill="#3EEAEF"/>
<path d="M248 176H344V192H248V176Z" fill="#3EEAEF"/>
<path d="M184 176H232V192H184V176Z" fill="#3EEAEF"/>
<path d="M152 176H168V192H152V176Z" fill="#3EEAEF"/>
<path d="M152 208H264V224H152V208Z" fill="#3EEAEF"/>
<path d="M280 208H312V224H280V208Z" fill="#3EEAEF"/>
<path d="M328 208H344V224H328V208Z" fill="#3EEAEF"/>
<path d="M152 240H344V256H152V240Z" fill="#3EEAEF"/>
</svg>
