<svg width="465" height="481" viewBox="0 0 465 481" fill="none" xmlns="http://www.w3.org/2000/svg">
<path d="M416.01 56.019H319.21C297.209 7.88201 240.351 -13.305 192.214 8.69501C171.265 18.27 154.465 35.07 144.89 56.019H48.01C21.511 56.045 0.0360098 77.52 0.0100098 104.019V352.019C0.0360098 378.518 21.511 399.993 48.01 400.019H172.922L162.242 432.019H72.01C58.755 432.019 48.01 442.764 48.01 456.019C48.01 469.274 58.755 480.019 72.01 480.019H392.01C405.265 480.019 416.01 469.274 416.01 456.019C416.01 442.764 405.265 432.019 392.01 432.019H301.778L291.098 400.019H416.01C442.509 399.993 463.984 378.518 464.01 352.019V104.019C463.983 77.521 442.508 56.046 416.01 56.019ZM232.01 16.019C276.193 16.019 312.01 51.836 312.01 96.019C312.01 140.202 276.193 176.019 232.01 176.019C187.827 176.019 152.01 140.202 152.01 96.019C152.058 51.857 187.847 16.068 232.01 16.019ZM392.01 448.019C396.428 448.019 400.01 451.601 400.01 456.019C400.01 460.437 396.428 464.019 392.01 464.019H72.01C67.592 464.019 64.01 460.437 64.01 456.019C64.01 451.601 67.592 448.019 72.01 448.019H392.01ZM179.114 432.019L189.794 400.019H274.226L284.89 432.019H179.114ZM448.01 352.019C448.01 369.692 433.683 384.019 416.01 384.019H48.01C30.337 384.019 16.01 369.692 16.01 352.019V336.019H448.01V352.019ZM448.01 320.019H16.01V104.019C16.01 86.346 30.337 72.019 48.01 72.019H139.21C132.229 98.318 136.891 126.348 152.01 148.971V202.251L118.106 213.555C112.227 196.996 94.038 188.338 77.479 194.217C60.92 200.096 52.262 218.285 58.141 234.844C64.02 251.403 82.209 260.061 98.768 254.182C109.478 250.38 117.346 241.154 119.41 229.979L162.538 215.579C165.795 214.494 167.997 211.452 168.01 208.019V167.371C179.425 177.641 193.145 185.011 208.01 188.859V235.739L193.61 245.339C178.558 235.078 158.038 238.962 147.777 254.014C137.516 269.066 141.4 289.586 156.452 299.847C171.504 310.108 192.024 306.223 202.285 291.172C209.115 281.153 209.897 268.195 204.321 257.427L220.449 246.675C222.674 245.191 224.009 242.693 224.009 240.019V191.611C226.657 191.835 229.305 192.019 232.009 192.019C234.713 192.019 237.361 191.835 240.009 191.611V224.019C240.009 226.693 241.344 229.191 243.569 230.675L259.697 241.427C257.307 245.922 256.042 250.929 256.009 256.019C255.955 273.745 270.282 288.158 288.008 288.212C305.734 288.266 320.147 273.939 320.201 256.213C320.255 238.487 305.928 224.074 288.202 224.02C281.876 224.001 275.686 225.851 270.409 229.339L256.009 219.739V188.859C270.874 185.011 284.594 177.641 296.009 167.371V200.019C296.008 203.051 297.721 205.824 300.433 207.179L344.537 229.227C347.459 246.612 363.921 258.337 381.306 255.415C398.691 252.493 410.416 236.031 407.494 218.646C404.572 201.261 388.11 189.536 370.725 192.458C359.687 194.313 350.427 201.814 346.321 212.227L312.009 195.075V148.971C327.141 126.355 331.819 98.323 324.849 72.019H416.009C433.682 72.019 448.009 86.346 448.009 104.019V320.019H448.01ZM104.01 224.019C104.01 232.856 96.847 240.019 88.01 240.019C79.173 240.019 72.01 232.856 72.01 224.019C72.01 215.182 79.173 208.019 88.01 208.019C96.847 208.019 104.01 215.183 104.01 224.019ZM192.01 272.019C192.01 280.856 184.847 288.019 176.01 288.019C167.173 288.019 160.01 280.856 160.01 272.019C160.01 263.182 167.173 256.019 176.01 256.019C184.847 256.019 192.01 263.183 192.01 272.019ZM272.01 256.019C272.01 247.182 279.173 240.019 288.01 240.019C296.847 240.019 304.01 247.182 304.01 256.019C304.01 264.856 296.847 272.019 288.01 272.019C279.173 272.019 272.01 264.856 272.01 256.019ZM360.01 224.019C360.01 215.182 367.173 208.019 376.01 208.019C384.847 208.019 392.01 215.182 392.01 224.019C392.01 232.856 384.847 240.019 376.01 240.019C367.173 240.019 360.01 232.856 360.01 224.019Z" fill="#3EEAEF"/>
</svg>
