<svg width="512" height="426" viewBox="0 0 512 426" fill="none" xmlns="http://www.w3.org/2000/svg">
<path d="M491.983 78.313C489.253 73.511 483.145 71.833 478.346 74.563C473.545 77.293 471.866 83.399 474.597 88.2C504.303 140.438 495.335 206.638 452.787 249.185L445.204 256.768C443.372 251.961 440.534 247.452 436.667 243.586L333.911 140.831C340.631 137.525 346.84 133.114 352.291 127.663L371.999 107.954C375.904 104.049 375.904 97.716 371.999 93.811C368.093 89.906 361.762 89.906 357.855 93.811L338.147 113.52C328.888 122.778 316.579 127.877 303.486 127.877H264.089C261.437 127.877 258.894 128.931 257.017 130.806L226.857 160.966C217.901 169.923 203.328 169.923 194.372 160.966C185.415 152.01 185.415 137.437 194.372 128.481L263.228 59.626C305.307 17.546 371 8.29199 422.975 37.122C427.805 39.799 433.893 38.058 436.572 33.227C439.251 28.397 437.507 22.309 432.677 19.63C404.009 3.73099 370.233 -2.63201 337.565 1.71899C306.993 5.78999 279.01 18.591 256.072 38.903C227.893 13.922 192.02 0.260986 154.04 0.260986C112.894 0.260986 74.212 16.284 45.117 45.378C16.022 74.472 0 113.157 0 154.302C0 195.448 16.023 234.13 45.117 263.225L48.886 266.994C49.542 267.649 50.27 268.185 51.039 268.62C51.708 277.272 55.333 285.736 61.936 292.338C69.285 299.686 78.933 303.358 88.584 303.358C89.085 303.358 89.587 303.342 90.088 303.322C90.068 303.828 90.051 304.334 90.051 304.843C90.051 314.909 93.971 324.373 101.089 331.491C108.438 338.839 118.086 342.512 127.737 342.511C128.238 342.511 128.74 342.495 129.241 342.475C129.221 342.981 129.204 343.487 129.204 343.996C129.204 354.062 133.124 363.526 140.243 370.644C147.591 377.991 157.241 381.664 166.891 381.664C167.398 381.664 167.905 381.648 168.412 381.628C168.006 391.779 171.663 402.065 179.396 409.799C186.515 416.917 195.979 420.837 206.044 420.837C216.111 420.837 225.575 416.917 232.692 409.799L246.669 395.821L265.548 414.698C272.666 421.817 282.13 425.737 292.196 425.737C302.262 425.737 311.726 421.817 318.844 414.699C326.67 406.873 330.326 396.432 329.816 386.162C330.444 386.193 331.074 386.211 331.703 386.211C341.354 386.211 351.006 382.538 358.353 375.19C366.082 367.461 369.739 357.183 369.337 347.037C369.843 347.057 370.349 347.074 370.858 347.074C380.924 347.074 390.388 343.154 397.506 336.036C405.235 328.307 408.892 318.029 408.49 307.883C408.996 307.903 409.502 307.92 410.011 307.92C420.077 307.92 429.541 304 436.659 296.882C440.274 293.267 442.996 289.091 444.832 284.634C445.805 284.16 446.72 283.529 447.529 282.721L466.923 263.327C515.824 214.436 526.126 138.354 491.983 78.313ZM88.585 283.374C83.861 283.374 79.42 281.535 76.079 278.194C72.739 274.854 70.899 270.413 70.899 265.689C70.899 260.966 72.738 256.524 76.079 253.184L93.313 235.95C96.653 232.609 101.095 230.77 105.819 230.77C110.542 230.77 114.984 232.609 118.324 235.95C125.22 242.846 125.22 254.065 118.324 260.96L101.09 278.195C97.75 281.534 93.31 283.374 88.585 283.374ZM115.235 317.349C111.894 314.009 110.055 309.567 110.055 304.844C110.055 300.12 111.894 295.679 115.235 292.339L132.47 275.104C132.47 275.104 132.47 275.104 132.47 275.103C135.81 271.763 140.251 269.923 144.975 269.923C149.698 269.923 154.14 271.762 157.48 275.103C164.376 281.999 164.376 293.218 157.48 300.113L140.246 317.348C133.349 324.243 122.127 324.243 115.235 317.349ZM154.388 356.502C151.047 353.162 149.208 348.72 149.208 343.997C149.208 339.273 151.047 334.832 154.388 331.492L171.623 314.257C171.623 314.257 171.623 314.257 171.623 314.256C174.963 310.916 179.404 309.076 184.128 309.076C188.852 309.076 193.293 310.915 196.633 314.256C203.529 321.153 203.529 332.372 196.633 339.267L179.398 356.502C172.503 363.398 161.284 363.398 154.388 356.502ZM235.787 378.422L218.552 395.658C215.212 398.998 210.771 400.838 206.047 400.838C201.324 400.838 196.882 398.999 193.542 395.658C186.646 388.761 186.646 377.542 193.542 370.647L210.777 353.412C210.777 353.412 210.777 353.412 210.777 353.411C214.117 350.071 218.558 348.231 223.282 348.231C228.005 348.231 232.447 350.07 235.787 353.411C239.128 356.751 240.967 361.193 240.967 365.916C240.968 370.642 239.128 375.082 235.787 378.422ZM422.523 282.739C419.183 286.08 414.741 287.919 410.018 287.919C405.294 287.919 400.853 286.08 397.513 282.739L355.886 241.112C355.884 241.11 355.883 241.109 355.881 241.107L316.731 201.957C312.825 198.052 306.494 198.052 302.587 201.957C298.682 205.862 298.682 212.195 302.587 216.1L383.369 296.88C390.265 303.777 390.265 314.996 383.369 321.891C380.029 325.232 375.587 327.071 370.864 327.071C366.14 327.071 361.699 325.232 358.359 321.891L277.577 241.11C273.671 237.206 267.34 237.206 263.433 241.11C259.528 245.015 259.528 251.348 263.433 255.254L302.579 294.399C302.582 294.402 302.585 294.406 302.588 294.409L344.216 336.035C351.112 342.932 351.112 354.152 344.217 361.047C337.32 367.943 326.099 367.943 319.206 361.047L277.578 319.419C276.808 318.65 275.943 318.038 275.022 317.572L263.149 305.699C259.243 301.795 252.912 301.795 249.005 305.699C245.1 309.604 245.1 315.937 249.005 319.843L304.707 375.543C311.603 382.44 311.603 393.659 304.707 400.554C301.367 403.895 296.925 405.734 292.202 405.734C287.478 405.734 283.037 403.895 279.697 400.554L258.501 379.359C260.116 375.122 260.97 370.585 260.97 365.915C260.97 355.849 257.05 346.385 249.932 339.267C242.813 332.149 233.349 328.229 223.284 328.229C222.775 328.229 222.269 328.246 221.763 328.266C222.164 318.12 218.508 307.842 210.779 300.113C203.66 292.995 194.196 289.075 184.131 289.075C183.622 289.075 183.116 289.092 182.61 289.112C183.012 278.966 179.355 268.688 171.626 260.959C164.507 253.841 155.043 249.921 144.978 249.921C144.469 249.921 143.963 249.938 143.457 249.958C143.859 239.812 140.202 229.534 132.473 221.805C117.779 207.111 93.868 207.112 79.174 221.805L61.94 239.039C59.766 241.213 57.923 243.592 56.391 246.11C32.9 221.159 20.006 188.722 20.006 154.3C20.006 118.497 33.948 84.836 59.266 59.52C84.582 34.204 118.244 20.261 154.046 20.261C186.582 20.261 217.348 31.777 241.69 52.879L180.233 114.336C172.117 122.453 167.647 133.244 167.647 144.722C167.647 156.201 172.117 166.992 180.233 175.109C188.611 183.486 199.616 187.675 210.62 187.675C221.624 187.675 232.629 183.487 241.007 175.109L268.239 147.877H303.492C306.403 147.877 309.282 147.678 312.126 147.325L422.529 257.726C429.418 264.625 429.418 275.845 422.523 282.739Z" fill="#3EEAEF"/>
</svg>
