<svg width="496" height="408" viewBox="0 0 496 408" fill="none" xmlns="http://www.w3.org/2000/svg">
<path d="M464 0H32C23.5165 0.0111128 15.3836 3.3861 9.38486 9.38486C3.3861 15.3836 0.0111128 23.5165 0 32V304C0.0111128 312.484 3.3861 320.616 9.38486 326.615C15.3836 332.614 23.5165 335.989 32 336H196.9L186.23 368H160C157.878 368 155.843 368.843 154.343 370.343C152.843 371.843 152 373.878 152 376V392H80C77.8783 392 75.8434 392.843 74.3431 394.343C72.8429 395.843 72 397.878 72 400C72 402.122 72.8429 404.157 74.3431 405.657C75.8434 407.157 77.8783 408 80 408H432C434.122 408 436.157 407.157 437.657 405.657C439.157 404.157 440 402.122 440 400C440 397.878 439.157 395.843 437.657 394.343C436.157 392.843 434.122 392 432 392H344V376C344 373.878 343.157 371.843 341.657 370.343C340.157 368.843 338.122 368 336 368H309.77L299.1 336H464C472.484 335.989 480.616 332.614 486.615 326.615C492.614 320.616 495.989 312.484 496 304V32C495.989 23.5165 492.614 15.3836 486.615 9.38486C480.616 3.3861 472.484 0.0111128 464 0ZM328 384V392H168V384H328ZM203.1 368L213.77 336H282.23L292.9 368H203.1ZM480 304C479.994 308.242 478.307 312.308 475.308 315.308C472.308 318.307 468.242 319.994 464 320H32C27.7582 319.994 23.6918 318.307 20.6924 315.308C17.6931 312.308 16.0056 308.242 16 304V288H480V304ZM135.66 200L132.66 272H123.34L120.34 200H135.66ZM121.44 184L126.78 152H129.22L134.56 184H121.44ZM128 136C119.33 136 112 125.01 112 112C112 103.79 120.38 91.86 127.98 83.45C134.83 91.05 144 103.2 144 112C144 125.01 136.67 136 128 136ZM215.06 120L216 121.89V128H184V121.89L184.94 120H215.06ZM192.94 104L200 89.89L207.06 104H192.94ZM216 144V271C216.003 271.334 216.026 271.668 216.07 272H183.93C183.974 271.668 183.997 271.334 184 271V144H216ZM288 112H312V128H304C301.878 128 299.843 128.843 298.343 130.343C296.843 131.843 296 133.878 296 136C296 138.122 296.843 140.157 298.343 141.657C299.843 143.157 301.878 144 304 144H312V160H288C285.878 160 283.843 160.843 282.343 162.343C280.843 163.843 280 165.878 280 168C280 170.122 280.843 172.157 282.343 173.657C283.843 175.157 285.878 176 288 176H312V192H304C301.878 192 299.843 192.843 298.343 194.343C296.843 195.843 296 197.878 296 200C296 202.122 296.843 204.157 298.343 205.657C299.843 207.157 301.878 208 304 208H312V224H288C285.878 224 283.843 224.843 282.343 226.343C280.843 227.843 280 229.878 280 232C280 234.122 280.843 236.157 282.343 237.657C283.843 239.157 285.878 240 288 240H312V272H256V80H312V96H288C285.878 96 283.843 96.8428 282.343 98.3431C280.843 99.8434 280 101.878 280 104C280 106.122 280.843 108.157 282.343 109.657C283.843 111.157 285.878 112 288 112ZM384 208V271C384.003 271.334 384.026 271.668 384.07 272H351.93C351.974 271.668 351.997 271.334 352 271V208H384ZM352 192V185.89L368 153.89L384 185.89V192H352ZM480 272H399.93C399.974 271.668 399.997 271.334 400 271V184C399.999 182.758 399.711 181.533 399.16 180.42L375.16 132.42C374.494 131.091 373.472 129.974 372.207 129.194C370.943 128.413 369.486 128 368 128C366.514 128 365.057 128.413 363.793 129.194C362.528 129.974 361.506 131.091 360.84 132.42L336.84 180.42C336.289 181.533 336.001 182.758 336 184V271C336.003 271.334 336.026 271.668 336.07 272H328V72C328 69.8783 327.157 67.8434 325.657 66.3431C324.157 64.8429 322.122 64 320 64H248C245.878 64 243.843 64.8429 242.343 66.3431C240.843 67.8434 240 69.8783 240 72V272H231.93C231.974 271.668 231.997 271.334 232 271V120C231.999 118.758 231.711 117.533 231.16 116.42L207.16 68.42C206.494 67.0915 205.472 65.9744 204.207 65.1938C202.943 64.4131 201.486 63.9997 200 63.9997C198.514 63.9997 197.057 64.4131 195.793 65.1938C194.528 65.9744 193.506 67.0915 192.84 68.42L168.84 116.42C168.289 117.533 168.001 118.758 168 120V271C168.003 271.334 168.026 271.668 168.07 272H148.67L151.99 192.33C152 192.15 151.99 191.97 151.99 191.78V191.54C151.971 191.258 151.938 190.978 151.89 190.7V190.68L144.49 146.27C153.78 139.26 160 126.52 160 112C160 91.44 136.17 68.67 133.45 66.14C131.968 64.766 130.021 64.0026 128 64.0026C125.979 64.0026 124.032 64.766 122.55 66.14C119.83 68.67 96 91.44 96 112C96 126.52 102.22 139.26 111.51 146.27L104.11 190.68V190.7C104.062 190.978 104.029 191.258 104.01 191.54V191.78C104.01 191.97 104 192.15 104.01 192.33L107.33 272H16V32C16.0056 27.7582 17.6931 23.6918 20.6924 20.6924C23.6918 17.6931 27.7582 16.0056 32 16H464C468.242 16.0056 472.308 17.6931 475.308 20.6924C478.307 23.6918 479.994 27.7582 480 32V272Z" fill="#3EEAEF"/>
<path d="M88 296H40C37.8783 296 35.8434 296.843 34.3431 298.343C32.8429 299.843 32 301.878 32 304C32 306.122 32.8429 308.157 34.3431 309.657C35.8434 311.157 37.8783 312 40 312H88C90.1217 312 92.1566 311.157 93.6569 309.657C95.1571 308.157 96 306.122 96 304C96 301.878 95.1571 299.843 93.6569 298.343C92.1566 296.843 90.1217 296 88 296Z" fill="#3EEAEF"/>
<path d="M120 296H112C109.878 296 107.843 296.843 106.343 298.343C104.843 299.843 104 301.878 104 304C104 306.122 104.843 308.157 106.343 309.657C107.843 311.157 109.878 312 112 312H120C122.122 312 124.157 311.157 125.657 309.657C127.157 308.157 128 306.122 128 304C128 301.878 127.157 299.843 125.657 298.343C124.157 296.843 122.122 296 120 296Z" fill="#3EEAEF"/>
<path d="M200 152C197.878 152 195.843 152.843 194.343 154.343C192.843 155.843 192 157.878 192 160V248C192 250.122 192.843 252.157 194.343 253.657C195.843 255.157 197.878 256 200 256C202.122 256 204.157 255.157 205.657 253.657C207.157 252.157 208 250.122 208 248V160C208 157.878 207.157 155.843 205.657 154.343C204.157 152.843 202.122 152 200 152Z" fill="#3EEAEF"/>
<path d="M368 216C365.878 216 363.843 216.843 362.343 218.343C360.843 219.843 360 221.878 360 224V248C360 250.122 360.843 252.157 362.343 253.657C363.843 255.157 365.878 256 368 256C370.122 256 372.157 255.157 373.657 253.657C375.157 252.157 376 250.122 376 248V224C376 221.878 375.157 219.843 373.657 218.343C372.157 216.843 370.122 216 368 216Z" fill="#3EEAEF"/>
<path d="M40 48H104C106.122 48 108.157 47.1571 109.657 45.6569C111.157 44.1566 112 42.1217 112 40C112 37.8783 111.157 35.8434 109.657 34.3431C108.157 32.8429 106.122 32 104 32H40C37.8783 32 35.8434 32.8429 34.3431 34.3431C32.8429 35.8434 32 37.8783 32 40C32 42.1217 32.8429 44.1566 34.3431 45.6569C35.8434 47.1571 37.8783 48 40 48Z" fill="#3EEAEF"/>
<path d="M40 72H56C58.1217 72 60.1566 71.1571 61.6569 69.6569C63.1571 68.1566 64 66.1217 64 64C64 61.8783 63.1571 59.8434 61.6569 58.3431C60.1566 56.8429 58.1217 56 56 56H40C37.8783 56 35.8434 56.8429 34.3431 58.3431C32.8429 59.8434 32 61.8783 32 64C32 66.1217 32.8429 68.1566 34.3431 69.6569C35.8434 71.1571 37.8783 72 40 72Z" fill="#3EEAEF"/>
<path d="M424 256H456C458.122 256 460.157 255.157 461.657 253.657C463.157 252.157 464 250.122 464 248C464 245.878 463.157 243.843 461.657 242.343C460.157 240.843 458.122 240 456 240H424C421.878 240 419.843 240.843 418.343 242.343C416.843 243.843 416 245.878 416 248C416 250.122 416.843 252.157 418.343 253.657C419.843 255.157 421.878 256 424 256Z" fill="#3EEAEF"/>
<path d="M448 232H456C458.122 232 460.157 231.157 461.657 229.657C463.157 228.157 464 226.122 464 224C464 221.878 463.157 219.843 461.657 218.343C460.157 216.843 458.122 216 456 216H448C445.878 216 443.843 216.843 442.343 218.343C440.843 219.843 440 221.878 440 224C440 226.122 440.843 228.157 442.343 229.657C443.843 231.157 445.878 232 448 232Z" fill="#3EEAEF"/>
</svg>
