<svg width="207" height="35" viewBox="0 0 207 35" fill="none" xmlns="http://www.w3.org/2000/svg">
<path fill-rule="evenodd" clip-rule="evenodd" d="M16 0C23.971 0 30.581 5.83 31.8 13.457C33.8609 15.8144 34.9978 18.8388 35 21.97C35.0039 23.6789 34.6709 25.3717 34.02 26.9518C33.3691 28.5318 32.413 29.968 31.2065 31.1782C30 32.3885 28.5668 33.3489 26.9888 34.0047C25.4107 34.6605 23.7189 34.9987 22.01 35C18.865 35.0073 15.8248 33.8699 13.457 31.8C5.829 30.58 0 23.97 0 16C0 7.163 7.163 0 16 0ZM21.977 9C14.8 9.013 8.99 14.84 9 22.016C9.00031 23.8705 9.39832 25.7034 10.1672 27.391C10.936 29.0786 12.0579 30.5818 13.457 31.799C14.7285 32.002 16.0196 32.0521 17.303 31.948C15.0416 30.8809 13.2113 29.0752 12.1137 26.8284C11.0162 24.5817 10.7168 22.0281 11.265 19.5884C11.8132 17.1488 13.1762 14.9687 15.1294 13.4075C17.0827 11.8463 19.5095 10.9971 22.01 11C24.0931 11.0033 26.1326 11.5975 27.8915 12.7136C29.6504 13.8296 31.0567 15.4217 31.947 17.305C31.319 25.1 25.1 31.319 17.303 31.948C19.3524 32.9145 21.6503 33.2246 23.8825 32.836C26.1148 32.4473 28.1727 31.379 29.775 29.7768C31.3772 28.1747 32.4457 26.1169 32.8345 23.8846C33.2233 21.6523 32.9133 19.3545 31.947 17.305C32.0515 16.0214 32.0019 14.7298 31.799 13.458C30.5776 12.0537 29.0682 10.9288 27.3734 10.1595C25.6786 9.39031 23.8382 8.99485 21.977 9V9Z" fill="#3EE9E5"/>
<line x1="18" y1="24" x2="161.003" y2="24" stroke="#3EE9E5" stroke-width="2"/>
<path d="M45.02 7.4C46.16 7.4 47.15 7.592 47.99 7.976C48.83 8.348 49.478 8.888 49.934 9.596C50.39 10.292 50.618 11.114 50.618 12.062C50.618 13.01 50.39 13.832 49.934 14.528C49.478 15.224 48.83 15.764 47.99 16.148C47.15 16.52 46.16 16.706 45.02 16.706H42.824V20H39.26V7.4H45.02ZM44.804 13.898C45.536 13.898 46.088 13.742 46.46 13.43C46.832 13.106 47.018 12.65 47.018 12.062C47.018 11.474 46.832 11.018 46.46 10.694C46.088 10.37 45.536 10.208 44.804 10.208H42.824V13.898H44.804ZM61.4637 16.652H59.5197V20H55.9557V7.4H61.7157C62.8557 7.4 63.8457 7.592 64.6857 7.976C65.5257 8.348 66.1737 8.888 66.6297 9.596C67.0857 10.292 67.3137 11.114 67.3137 12.062C67.3137 12.974 67.0977 13.772 66.6657 14.456C66.2457 15.128 65.6397 15.656 64.8477 16.04L67.5657 20H63.7497L61.4637 16.652ZM63.7137 12.062C63.7137 11.474 63.5277 11.018 63.1557 10.694C62.7837 10.37 62.2317 10.208 61.4997 10.208H59.5197V13.898H61.4997C62.2317 13.898 62.7837 13.742 63.1557 13.43C63.5277 13.106 63.7137 12.65 63.7137 12.062ZM81.3219 17.552H75.9939L75.0039 20H71.3679L76.9299 7.4H80.4399L86.0199 20H82.3119L81.3219 17.552ZM80.2779 14.924L78.6579 10.892L77.0379 14.924H80.2779ZM92.6795 10.226H88.8095V7.4H100.095V10.226H96.2435V20H92.6795V10.226ZM117.011 7.4V20H113.447V15.086H108.587V20H105.023V7.4H108.587V12.134H113.447V7.4H117.011ZM134.501 20L134.465 13.322L131.225 18.758H129.641L126.419 13.502V20H123.125V7.4H126.059L130.487 14.672L134.807 7.4H137.741L137.777 20H134.501ZM154.015 17.246V20H143.899V7.4H153.781V10.154H147.427V12.278H153.025V14.942H147.427V17.246H154.015ZM164.021 20.252C163.001 20.252 162.011 20.126 161.051 19.874C160.091 19.622 159.311 19.286 158.711 18.866L159.881 16.238C160.445 16.61 161.099 16.91 161.843 17.138C162.587 17.366 163.319 17.48 164.039 17.48C165.407 17.48 166.091 17.138 166.091 16.454C166.091 16.094 165.893 15.83 165.497 15.662C165.113 15.482 164.489 15.296 163.625 15.104C162.677 14.9 161.885 14.684 161.249 14.456C160.613 14.216 160.067 13.838 159.611 13.322C159.155 12.806 158.927 12.11 158.927 11.234C158.927 10.466 159.137 9.776 159.557 9.164C159.977 8.54 160.601 8.048 161.429 7.688C162.269 7.328 163.295 7.148 164.507 7.148C165.335 7.148 166.151 7.244 166.955 7.436C167.759 7.616 168.467 7.886 169.079 8.246L167.981 10.892C166.781 10.244 165.617 9.92 164.489 9.92C163.781 9.92 163.265 10.028 162.941 10.244C162.617 10.448 162.455 10.718 162.455 11.054C162.455 11.39 162.647 11.642 163.031 11.81C163.415 11.978 164.033 12.152 164.885 12.332C165.845 12.536 166.637 12.758 167.261 12.998C167.897 13.226 168.443 13.598 168.899 14.114C169.367 14.618 169.601 15.308 169.601 16.184C169.601 16.94 169.391 17.624 168.971 18.236C168.551 18.848 167.921 19.34 167.081 19.712C166.241 20.072 165.221 20.252 164.021 20.252ZM186.835 7.4V20H183.271V15.086H178.411V20H174.847V7.4H178.411V12.134H183.271V7.4H186.835ZM194.227 20.162C193.651 20.162 193.165 19.97 192.769 19.586C192.373 19.202 192.175 18.716 192.175 18.128C192.175 17.528 192.367 17.042 192.751 16.67C193.147 16.298 193.639 16.112 194.227 16.112C194.827 16.112 195.319 16.298 195.703 16.67C196.087 17.042 196.279 17.528 196.279 18.128C196.279 18.716 196.081 19.202 195.685 19.586C195.301 19.97 194.815 20.162 194.227 20.162Z" fill="#3EE9E5"/>
</svg>
